<svg width="200" height="200" xmlns="http://www.w3.org/2000/svg">
  <defs>
    <!-- Gold gradient -->
    <linearGradient id="goldGradient" x1="0%" y1="0%" x2="100%" y2="100%">
      <stop offset="0%" style="stop-color:#D4AF37;stop-opacity:1" />
      <stop offset="50%" style="stop-color:#FFD700;stop-opacity:1" />
      <stop offset="100%" style="stop-color:#B8860B;stop-opacity:1" />
    </linearGradient>
    
    <!-- Teal gradient -->
    <linearGradient id="tealGradient" x1="0%" y1="0%" x2="100%" y2="100%">
      <stop offset="0%" style="stop-color:#008B8B;stop-opacity:1" />
      <stop offset="50%" style="stop-color:#20B2AA;stop-opacity:1" />
      <stop offset="100%" style="stop-color:#006666;stop-opacity:1" />
    </linearGradient>
    
    <!-- Dark background with texture -->
    <pattern id="darkTexture" patternUnits="userSpaceOnUse" width="8" height="8">
      <rect width="8" height="8" fill="#1A1A1A"/>
      <circle cx="2" cy="2" r="1" fill="#2A2A2A" opacity="0.3"/>
      <circle cx="6" cy="6" r="0.6" fill="#2A2A2A" opacity="0.2"/>
    </pattern>
    
    <!-- Marbled pattern for inner triangle -->
    <pattern id="marbledPattern" patternUnits="userSpaceOnUse" width="60" height="60">
      <rect width="60" height="60" fill="#006666"/>
      <path d="M12,12 Q24,6 36,18 T60,12 Q48,24 36,36 T12,48 Q24,42 36,54 T60,48" 
            fill="#008B8B" opacity="0.7"/>
      <path d="M6,6 Q18,0 30,12 T54,6 Q42,18 30,30 T6,42 Q18,36 30,48 T54,42" 
            fill="#20B2AA" opacity="0.5"/>
      <path d="M0,0 Q12,-6 24,6 T48,0 Q36,12 24,24 T0,36 Q12,30 24,42 T48,36" 
            fill="#00FFFF" opacity="0.3"/>
    </pattern>
    
    <!-- Drop shadow filter -->
    <filter id="dropshadow" x="-50%" y="-50%" width="200%" height="200%">
      <feDropShadow dx="3" dy="3" stdDeviation="3" flood-color="#000000" flood-opacity="0.3"/>
    </filter>
  </defs>
  
  <!-- Dark textured background -->
  <rect width="200" height="200" fill="url(#darkTexture)"/>
  
  <!-- Golden specks scattered around -->
  <circle cx="30" cy="30" r="2" fill="#FFD700" opacity="0.8"/>
  <circle cx="170" cy="40" r="1.5" fill="#FFD700" opacity="0.6"/>
  <circle cx="50" cy="160" r="1" fill="#FFD700" opacity="0.7"/>
  <circle cx="150" cy="170" r="2.5" fill="#FFD700" opacity="0.5"/>
  <circle cx="20" cy="100" r="1.8" fill="#FFD700" opacity="0.9"/>
  <circle cx="180" cy="120" r="1.2" fill="#FFD700" opacity="0.6"/>
  
  <!-- Main logo group -->
  <g transform="translate(100, 100)" filter="url(#dropshadow)">
    <!-- Outer golden circle -->
    <circle cx="0" cy="0" r="70" fill="none" stroke="url(#goldGradient)" stroke-width="10"/>
    
    <!-- Golden triangle -->
    <path d="M0,-52 L45,26 L-45,26 Z" fill="none" stroke="url(#goldGradient)" stroke-width="8"/>
    
    <!-- Inner marbled triangle -->
    <path d="M0,-35 L30,17.5 L-30,17.5 Z" fill="url(#marbledPattern)"/>
  </g>
  
  <!-- Subtle glow effect -->
  <circle cx="100" cy="100" r="75" fill="none" stroke="url(#goldGradient)" stroke-width="2" opacity="0.3"/>
</svg>
